Coordinates
version=1
nRows=8
nColumns=36
inDegrees=yes

Units are S.I. units (second, meters, Newtons, ...)
If the header above contains a line with 'inDegrees', this indicates whether rotational values are in degrees (yes) or radians (no).

endheader
time	pelvis_tilt	pelvis_list	pelvis_rotation	pelvis_tx	pelvis_ty	pelvis_tz	hip_flexion_r	hip_adduction_r	hip_rotation_r	knee_angle_r	knee_angle_r_beta	ankle_angle_r	subtalar_angle_r	mtp_angle_r	hip_flexion_l	hip_adduction_l	hip_rotation_l	knee_angle_l	knee_angle_l_beta	ankle_angle_l	subtalar_angle_l	mtp_angle_l	lumbar_extension	lumbar_bending	lumbar_rotation	arm_flex_r	arm_add_r	arm_rot_r	elbow_flex_r	pro_sup_r	arm_flex_l	arm_add_l	arm_rot_l	elbow_flex_l	pro_sup_l
      6.40000000	     32.00323181	      2.04029665	      4.24050740	      1.07660521	      0.98341387	     -0.10676643	      6.84543877	      0.22962215	      5.98755620	     17.37145413	      0.30318907	      4.35413749	     -2.09208723	     -7.49999987	    -23.43843298	      5.71399276	     -3.25908509	     29.70471473	      0.51844508	     25.65670687	    -14.96022504	     -7.49999987	    -43.27097374	      0.59837933	      3.41961153	     54.72018332	      3.94106373	     54.96096382	    120.31039769	     89.68655630	     53.75443650	     -1.52204274	     60.03286223	    125.76068364	     95.59549587
      6.41666670	     31.48990585	      1.49284353	      4.28370088	      1.07313114	      0.99708495	     -0.10451480	      6.66528077	      0.95601473	      5.40849517	     16.69085968	      0.29131046	      4.23043699	     -1.03215320	     -7.49999987	    -24.61262760	      5.03747136	     -4.04001960	     26.12060793	      0.45589061	     23.69491836	    -14.25692099	     -7.49999987	    -42.32433519	      1.21573632	      4.33326940	     54.43170126	      2.89914974	     55.61268946	    120.09913793	     88.88185090	     53.38692474	     -0.89268082	     61.39905149	    124.90474002	     94.80022980
      6.43333330	     30.81722328	      0.68052044	      4.35982548	      1.07629479	      0.99786603	     -0.10524064	      6.60259331	      1.91505572	      4.71092411	     15.82361743	      0.27617422	      4.13159517	     -0.01297152	     -7.49999987	    -25.77915156	      4.11994953	     -5.07449324	     22.38908438	      0.39076324	     21.89291246	    -12.93653288	     -7.49999987	    -41.05511565	      2.14949478	      5.54200656	     54.21627437	      1.68380580	     55.55967555	    120.14001352	     86.87915951	     52.95498627	     -0.06805991	     62.53422259	    124.40893967	     92.65716941
      6.45000000	     29.78539859	     -0.20490320	      4.58161178	      1.07893537	      1.00047413	     -0.10624846	      6.84472964	      2.95384218	      4.23183799	     14.90318678	      0.26010968	      4.52088471	      0.66033470	     -7.49999987	    -26.47658286	      3.14299476	     -6.00357256	     18.90814116	      0.33000932	     19.83024825	    -11.85764158	     -7.49999987	    -39.42254945	      3.30943892	      6.22334950	     54.00822622	      0.54489134	     55.22216771	    119.59059722	     86.95934620	     52.38172621	      0.41391825	     62.88586087	    124.73421928	     92.81179073
      6.46666670	     29.05546195	     -1.62517064	      4.75460093	      1.08716161	      1.00220333	     -0.10440752	      6.81038882	      4.57826147	      3.70564424	     14.30223715	      0.24962113	      5.65322193	      1.57509343	     -7.49999987	    -27.42516998	      1.63798490	     -7.35814098	     15.65900851	      0.27330126	     18.35479489	    -10.04725686	     -7.49999987	    -37.78680454	      4.90290436	      7.24464165	     52.97507788	     -0.56288181	     53.65476298	    119.54908483	     88.92668632	     51.80301759	      1.16018829	     62.16782373	    124.05063730	     95.07302838
      6.48333330	     28.21600300	     -2.97418076	      4.90087331	      1.08298156	      1.00243595	     -0.10284500	      7.44214745	      6.15835059	      3.61401839	     14.70172856	      0.25659357	      6.82352507	      1.73262985	     -7.49999987	    -27.82807398	      0.26749924	     -8.56235108	     12.98184050	      0.22657586	     17.17637121	     -8.51808309	     -7.49999987	    -36.18972996	      6.34771933	      7.95558543	     52.74476779	     -0.47078710	     53.76733053	    120.70855232	     88.48013425	     51.31564820	      1.72805093	     61.78657380	    123.31374823	     95.90649747
      6.50000000	     27.39598400	     -4.29645473	      4.97514539	      1.08523019	      1.00422083	     -0.10403133	      8.29105854	      7.67715213	      3.48846055	     15.67532478	      0.27358603	      8.09612306	      1.53283434	     -7.49999987	    -27.93134921	     -1.02345581	     -9.52329574	     10.82994497	      0.18901820	     16.18561130	     -7.42978679	     -7.49999987	    -34.72123058	      7.79603689	      8.41603103	     52.30347776	     -0.49834578	     54.90530455	    122.43377140	     88.31566345	     50.64399773	      2.15063720	     61.51060934	    122.83508207	     96.02652095
      6.51666670	     26.73051473	     -5.33693473	      5.02499276	      1.08008534	      1.00267162	     -0.10191521	      9.42852115	      8.92533621	      3.41373551	     17.39983740	      0.30368445	      9.26546386	      0.97470360	     -7.49999987	    -27.72885849	     -2.06378883	    -10.35707585	      9.32740789	      0.16279398	     15.32017026	     -6.83869244	     -7.49999987	    -33.78181217	      8.88281913	      8.74315082	     52.46020432	     -0.63931189	     55.67387010	    123.54968241	     87.92020898	     50.71849148	      2.43663047	     61.03856552	    122.10354272	     95.59454671
